<svg width="460" height="160" viewBox="0 0 460 160" fill="none" xmlns="http://www.w3.org/2000/svg">
<path d="M287.338 45.0295H347.953V56.2265H323.908V115.132H311.884V56.2265H287.338V45.0295Z" fill="white"/>
<path d="M187.648 45.0295V56.2265H139.061V74.2391H178.135V85.4361H139.061V103.936H187.648V115.132H127.038V56.2265H127.033V45.0295H187.648Z" fill="white"/>
<path d="M217.918 45.0583H202.184L258.54 115.161H274.32L246.138 80.1339L274.275 45.1118L258.54 45.1362L238.261 70.3426L217.918 45.0583Z" fill="white"/>
<path d="M234.064 95.1336L226.184 85.3289L202.139 115.215H217.918L234.064 95.1336Z" fill="white"/>
<path fill-rule="evenodd" clip-rule="evenodd" d="M127.461 115.132L71.0285 45H56V115.103H68.0229V59.9845L112.357 115.132H127.461Z" fill="white"/>
<path d="M350.657 114.704C349.776 114.704 349.027 114.399 348.4 113.788C347.773 113.178 347.463 112.439 347.471 111.563C347.463 110.711 347.773 109.98 348.4 109.37C349.027 108.759 349.776 108.454 350.657 108.454C351.514 108.454 352.247 108.759 352.858 109.37C353.469 109.98 353.787 110.711 353.811 111.563C353.787 112.439 353.469 113.178 352.858 113.788C352.247 114.399 351.514 114.704 350.657 114.704Z" fill="white"/>
<path d="M371.179 85.1719H376.507V105.714C376.499 107.602 376.091 109.217 375.293 110.575C374.487 111.933 373.37 112.969 371.937 113.7C370.511 114.423 368.841 114.793 366.943 114.793C365.208 114.793 363.65 114.439 362.285 113.732C360.92 113.024 359.859 112.028 359.093 110.736C358.327 109.444 357.944 107.922 357.944 106.17H363.272C363.288 107.21 363.586 108.04 364.166 108.667C364.746 109.294 365.552 109.607 366.584 109.607C367.648 109.607 368.487 109.294 369.107 108.667C369.726 108.04 370.036 107.13 370.036 105.938V85.1719H371.179Z" fill="white"/>
<path d="M398.426 93.2055C398.296 91.9603 397.725 90.9882 396.732 90.2973C395.729 89.5984 394.434 89.2529 392.846 89.2529C391.73 89.2529 390.769 89.4217 389.971 89.751C389.172 90.0884 388.553 90.5383 388.121 91.1087C387.681 91.6792 387.469 92.3379 387.469 93.0769C387.469 93.7117 387.624 94.2501 387.943 94.6843C388.261 95.1185 388.683 95.4801 389.204 95.761C389.725 96.0419 390.292 96.2749 390.897 96.4599C391.502 96.6368 392.099 96.7894 392.68 96.9178L395.312 97.5607C396.481 97.8253 397.61 98.1708 398.697 98.5889C399.785 99.007 400.767 99.5291 401.645 100.155C402.523 100.782 403.224 101.537 403.748 102.422C404.269 103.307 404.53 104.352 404.53 105.557C404.53 107.113 404.107 108.509 403.255 109.754C402.404 110.999 401.186 111.993 399.595 112.749C398.004 113.496 396.095 113.873 393.869 113.873C391.74 113.873 389.864 113.52 388.248 112.813C386.633 112.106 385.366 111.094 384.442 109.778C383.527 108.461 383.038 106.871 382.991 105.007H388.041C388.112 106.023 388.419 106.87 388.963 107.553C389.508 108.236 390.22 108.75 391.099 109.095C391.985 109.44 392.973 109.608 394.054 109.608C395.215 109.608 396.239 109.432 397.134 109.079C398.028 108.726 398.729 108.228 399.242 107.593C399.755 106.958 400.015 106.212 400.023 105.364C400.015 104.588 399.787 103.939 399.345 103.409C398.903 102.879 398.289 102.429 397.512 102.067C396.726 101.705 395.815 101.381 394.771 101.103L391.62 100.3C389.298 99.6976 387.435 98.7981 386.032 97.6095C384.629 96.4209 383.932 94.8231 383.932 92.8163C383.932 91.2266 384.387 89.8265 385.295 88.6136C386.203 87.4006 387.453 86.4446 389.044 85.7374C390.635 85.0382 392.459 84.6847 394.524 84.6847C396.613 84.6847 398.426 85.0382 400.001 85.7374C401.576 86.4365 402.81 87.3925 403.701 88.6055C404.593 89.8184 405.058 91.1924 405.098 92.7336H398.426V93.2055Z" fill="white"/>
</svg>