<svg width="460" height="160" viewBox="0 0 460 160" fill="none" xmlns="http://www.w3.org/2000/svg">
<g clip-path="url(#clip0_53_22)">
<path d="M219.995 124C220.935 124 221.735 123.212 221.735 122.24V81.32C221.735 81.32 223.91 85.28 227.825 91.88L244.79 121.36C245.566 123.006 247.289 124 248.705 124H260.45V58H248.705C247.923 58 246.905 58.7881 246.905 59.76V100.68C246.905 100.68 244.73 96.72 240.815 90.12L223.85 60.64C223.074 58.994 221.351 58 219.935 58H208.25V124H219.995Z" fill="white"/>
<path d="M371.811 76.4799H377.466C378.906 76.4799 380.076 75.298 380.076 73.8399V62.3999H392.256V76.4799H404.001V87.0399H392.256V105.96C392.256 110.58 394.455 112.56 398.346 112.56H404.001V124H396.606C388.631 124 382.316 119.66 380.076 112.56V87.0399H371.811V76.4799Z" fill="white"/>
<path d="M313.086 76.4799V103.76C313.086 109.922 310.799 115.116 307.431 118.72C304.063 122.324 299.412 124 293.076 124C286.74 124 281.654 122.324 278.286 118.72C274.975 115.116 272.631 109.922 272.631 103.76V76.4799H284.411V103.76C284.411 106.84 285.351 109.04 286.851 110.58C288.351 112.12 290.471 112.92 293.076 112.92C295.681 112.92 297.801 112.12 299.301 110.58C300.801 109.04 301.741 106.84 301.741 103.76V76.4799H313.086Z" fill="white"/>
<path d="M350.06 99.36L364.85 76.48H353.54C352.116 76.48 350.849 76.9973 350.06 78.24L343.1 88.8L336.575 78.68C335.787 77.4373 334.085 76.48 332.66 76.48H321.785L336.575 98.92L320.48 124H331.79C333.205 124 334.515 123.52 335.305 122.28L343.1 110.48L350.46 122.28C351.248 123.522 352.885 124 354.31 124H365.185L350.06 99.36Z" fill="white"/>
<path d="M129.08 124H177.365C178.906 124 180.381 123.452 181.715 122.68C183.049 121.908 184.425 120.938 185.195 119.6C185.965 118.262 186.501 116.744 186.5 115.199C186.499 113.655 185.966 112.138 185.195 110.8C184.425 109.462 183.049 108.492 181.715 107.72L158.45 94.28C157.876 93.9401 157.586 93.2801 157.586 92.5601V91.4401C157.586 90.7201 157.876 90.0601 158.45 89.7201L181.715 76.28C183.049 75.508 184.425 74.538 185.195 73.2C185.965 71.862 186.501 70.344 186.5 68.8C186.499 67.256 185.966 65.738 185.195 64.4C184.425 63.062 183.049 62.092 181.715 61.32L149.03 42.64C147.696 41.868 146.221 41.32 144.68 41.32H96.395C94.854 41.32 93.379 41.868 92.045 42.64L59.36 61.32C58.026 62.092 56.65 63.062 55.88 64.4C55.11 65.738 54.574 67.256 54.575 68.8C54.576 70.344 55.11 71.862 55.88 73.2C56.65 74.538 58.026 75.508 59.36 76.28L82.625 89.72C83.199 90.06 83.489 90.72 83.489 91.44V92.56C83.489 93.28 83.199 93.94 82.625 94.28L59.36 107.72C58.026 108.492 56.65 109.462 55.88 110.8C55.11 112.138 54.574 113.656 54.575 115.2C54.576 116.744 55.11 118.262 55.88 119.6C56.65 120.938 58.026 121.908 59.36 122.68C60.694 123.452 62.169 124 63.71 124H129.08Z" fill="url(#paint0_linear_53_22)"/>
</g>
<defs>
<linearGradient id="paint0_linear_53_22" x1="120.5375" y1="41.32" x2="120.5375" y2="124" gradientUnits="userSpaceOnUse">
<stop stop-color="white"/>
<stop offset="1" stop-color="white" stop-opacity="0.3"/>
</linearGradient>
<clipPath id="clip0_53_22">
<rect width="348" height="88" fill="white" transform="translate(56 36)"/>
</clipPath>
</defs>
</svg>