<svg width="460" height="160" viewBox="0 0 460 160" fill="none" xmlns="http://www.w3.org/2000/svg">
<g clip-path="url(#clip0_53_43)">
<path fill-rule="evenodd" clip-rule="evenodd" d="M123.15 102.898C123.942 113.071 123.942 117.84 123.942 123.045H100.403C100.403 117.84 100.403 113.071 101.195 102.898H123.15ZM57.8855 41.32C48.5335 41.32 41.3135 46.848 37.8855 55.904C35.2455 62.592 34.8855 70.4 34.8855 80H58.4255C58.4255 70.4 58.7855 62.592 61.4255 55.904C64.8535 46.848 72.0735 41.32 81.4255 41.32H123.942V62.16H104.942C97.0735 62.16 93.1535 67.328 91.9535 73.6C91.2295 77.36 90.9455 81.68 90.9455 87.04V123.045H68.0695V87.04C68.0695 81.68 67.7855 77.36 67.0615 73.6C65.8615 67.328 61.9415 62.16 54.0735 62.16H37.8855V123.045H14.8855V41.32H57.8855ZM123.942 41.32H166.942C176.294 41.32 183.514 46.848 186.942 55.904C189.582 62.592 189.942 70.4 189.942 80C189.942 89.6 189.582 97.408 186.942 104.096C183.514 113.152 176.294 118.68 166.942 118.68H123.942V97.84H142.942C150.81 97.84 154.73 92.672 155.93 86.4C156.654 82.64 156.938 78.32 156.938 72.96C156.938 67.6 156.654 63.28 155.93 59.52C154.73 53.248 150.81 48.08 142.942 48.08H123.942V41.32Z" fill="white"/>
</g>
<defs>
<clipPath id="clip0_53_43">
<rect width="175.057" height="81.725" fill="white" transform="translate(14.8855 41.32)"/>
</clipPath>
</defs>
</svg>