<svg width="460" height="160" viewBox="0 0 460 160" fill="none" xmlns="http://www.w3.org/2000/svg">
<path d="M166.062 104.781C162.157 104.879 158.313 103.793 155.037 101.665C151.976 99.6469 149.703 96.6365 148.6 93.14L155.311 90.6744C156.241 92.8221 157.76 94.6623 159.693 95.9815C161.656 97.2963 163.944 98.0047 166.283 98.0102C168.623 98.0156 170.914 97.3178 172.883 96.0129C174.852 94.7081 176.409 92.8532 177.374 90.6783C178.339 88.5034 178.674 86.105 178.341 83.7535C178.008 81.402 177.02 79.1992 175.495 77.4046C173.97 75.61 171.975 74.3 169.745 73.6236C167.515 72.9473 165.144 72.9322 162.906 73.58L160.44 74.1801C156.04 75.2401 151.42 75.3201 146.98 74.4201C142.54 73.5201 138.42 71.6601 134.96 68.9801C131.5 66.3001 128.8 62.8801 127.08 59.0001C125.36 55.1201 124.66 50.8801 125.04 46.6601C125.42 42.4401 126.86 38.3601 129.24 34.8201C131.62 31.2801 134.86 28.3801 138.66 26.4001C142.46 24.4201 146.7 23.4201 151.02 23.4801C158.14 23.5401 165.02 26.0001 170.36 30.4001C172.893 32.4934 175.029 35.0127 176.66 37.8401L170.9 41.0001C169.63 38.8801 167.95 37.0401 165.96 35.5801C161.86 32.5401 156.74 31.0401 151.56 31.3401C149.4 31.4801 147.28 32.0601 145.34 33.0601C143.4 34.0601 141.68 35.4601 140.28 37.1601C138.88 38.8601 137.84 40.8201 137.22 42.9201C136.6 45.0201 136.42 47.2201 136.68 49.3801C136.94 51.5401 137.64 53.6201 138.74 55.4801C139.84 57.3401 141.32 58.9401 143.08 60.1801C144.84 61.4201 146.84 62.2801 148.96 62.7001C151.08 63.1201 153.28 63.0901 155.4 62.6001L157.86 62.0001C162.26 60.9401 166.88 60.8601 171.32 61.7601C175.76 62.6601 179.88 64.5201 183.34 67.2001C186.8 69.8801 189.5 73.3001 191.22 77.1801C192.94 81.0601 193.64 85.3001 193.26 89.5201C192.88 93.7401 191.44 97.8201 189.06 101.36C186.68 104.9 183.44 107.8 179.64 109.78C175.84 111.76 171.6 112.76 167.28 112.7C165.868 112.686 164.458 112.594 163.06 112.42V104.78L166.06 104.78L166.062 104.781Z" fill="white"/>
</svg>